<?xml version="1.0" standalone="no"?>
<!DOCTYPE svg PUBLIC "-//W3C//DTD SVG 20010904//EN"
 "http://www.w3.org/TR/2001/REC-SVG-20010904/DTD/svg10.dtd">
<svg version="1.0" xmlns="http://www.w3.org/2000/svg"
 width="1280.000000pt" height="640.000000pt" viewBox="0 0 1280.000000 640.000000"
 preserveAspectRatio="xMidYMid meet">
<g transform="translate(0.000000,640.000000) scale(0.100000,-0.100000)"
fill="#000000" stroke="none">
<path d="M2330 5785 c-572 -74 -1104 -345 -1540 -785 -414 -416 -683 -945
-755 -1478 -8 -64 -20 -147 -25 -184 -13 -85 -13 -191 0 -276 5 -37 17 -120
25 -184 111 -829 695 -1616 1495 -2018 622 -312 1320 -345 1960 -93 726 287
1307 883 1585 1628 l41 110 571 5 572 5 27 40 c194 287 298 435 308 435 6 0
93 -101 193 -223 100 -123 188 -229 195 -234 9 -8 110 17 353 87 l341 97 223
141 c197 125 226 140 245 130 11 -6 119 -69 239 -141 l219 -129 100 36 c55 20
109 36 121 36 12 0 70 -16 128 -35 l107 -36 351 141 352 140 331 -140 330
-141 118 41 117 42 64 -28 c35 -15 78 -33 96 -40 l32 -14 160 140 159 140 496
0 496 0 199 99 198 100 97 104 c53 57 103 113 110 123 13 19 23 363 18 609
l-2 100 -293 73 -294 73 -136 -20 c-135 -21 -145 -21 -3605 -21 l-3470 0 -62
113 c-439 796 -1193 1328 -2030 1433 -137 17 -427 17 -560 -1z"/>
</g>
</svg>
